# Made in Blockbench 4.12.3
mtllib wheel.mtl

o wheel
v 1.125 1.46875 0.625
v 1.125 1.46875 0.375
v 1.125 0.84375 0.625
v 1.125 0.84375 0.375
v 0.875 1.46875 0.625
v 0.875 1.46875 0.375
v 0.875 0.84375 0.625
v 0.875 0.84375 0.375
v 1.125 -0.46875 0.3749999999999999
v 1.125 -0.46875 0.6249999999999999
v 1.125 0.15625 0.37499999999999994
v 1.125 0.15625 0.625
v 0.875 -0.46875 0.3749999999999999
v 0.875 -0.46875 0.6249999999999999
v 0.875 0.15625 0.37499999999999994
v 0.875 0.15625 0.625
v 1.125 0.6250000000000002 -0.46875
v 1.125 0.3750000000000002 -0.46875
v 1.125 0.6250000000000001 0.15625
v 1.125 0.3750000000000001 0.15625
v 0.875 0.6250000000000002 -0.46875
v 0.875 0.3750000000000002 -0.46875
v 0.875 0.6250000000000001 0.15625
v 0.875 0.3750000000000001 0.15625
v 1.125 0.3750000000000002 1.46875
v 1.125 0.6250000000000002 1.46875
v 1.125 0.3750000000000001 0.84375
v 1.125 0.6250000000000001 0.84375
v 0.875 0.3750000000000002 1.46875
v 0.875 0.6250000000000002 1.46875
v 0.875 0.3750000000000001 0.84375
v 0.875 0.6250000000000001 0.84375
v 1.125 1.2733980419227864 -0.09662134662614963
v 1.125 1.0966213466261494 -0.2733980419227864
v 1.125 0.8314563036811942 0.3453203916154427
v 1.125 0.6546796083845572 0.16854369631880584
v 0.875 1.2733980419227864 -0.09662134662614963
v 0.875 1.0966213466261494 -0.2733980419227864
v 0.875 0.8314563036811942 0.3453203916154427
v 0.875 0.6546796083845572 0.16854369631880584
v 1.125 -0.2733980419227864 1.0966213466261496
v 1.125 -0.09662134662614941 1.2733980419227866
v 1.125 0.16854369631880584 0.6546796083845573
v 1.125 0.3453203916154428 0.8314563036811942
v 0.875 -0.2733980419227864 1.0966213466261496
v 0.875 -0.09662134662614941 1.2733980419227866
v 0.875 0.16854369631880584 0.6546796083845573
v 0.875 0.3453203916154428 0.8314563036811942
v 1.125 1.0966213466261494 1.2733980419227864
v 1.125 1.2733980419227864 1.0966213466261496
v 1.125 0.6546796083845572 0.8314563036811942
v 1.125 0.8314563036811942 0.6546796083845573
v 0.875 1.0966213466261494 1.2733980419227864
v 0.875 1.2733980419227864 1.0966213466261496
v 0.875 0.6546796083845572 0.8314563036811942
v 0.875 0.8314563036811942 0.6546796083845573
v 1.125 -0.09662134662614941 -0.2733980419227866
v 1.125 -0.2733980419227864 -0.09662134662614963
v 1.125 0.3453203916154428 0.16854369631880584
v 1.125 0.16854369631880584 0.3453203916154427
v 0.875 -0.09662134662614941 -0.2733980419227866
v 0.875 -0.2733980419227864 -0.09662134662614963
v 0.875 0.3453203916154428 0.16854369631880584
v 0.875 0.16854369631880584 0.3453203916154427
v 1.1875 1.78125 -0.0307111267905279
v 1.1875 0.9006944422301301 -0.46959269043960195
v 1.1875 1.0307111267905282 -0.78125
v 0.8125 1.78125 -0.0307111267905279
v 0.8125 0.9006944422301301 -0.46959269043960195
v 0.8125 1.0307111267905282 -0.78125
v 1.1875 0.09930555776986999 -0.46959269043960195
v 1.1875 -0.0307111267905279 -0.78125
v 0.8125 0.09930555776986999 -0.46959269043960195
v 0.8125 -0.0307111267905279 -0.78125
v 1.1875 -0.03071112679052823 1.78125
v 1.1875 0.09930555776986993 1.469592690439602
v 1.1875 -0.78125 1.030711126790528
v 1.1875 -0.46959269043960195 0.90069444223013
v 0.8125 -0.03071112679052823 1.78125
v 0.8125 0.09930555776987005 1.469592690439602
v 0.8125 -0.78125 1.030711126790528
v 0.8125 -0.46959269043960195 0.90069444223013
v 1.1875 1.030711126790528 1.78125
v 1.1875 0.90069444223013 1.469592690439602
v 0.8125 1.030711126790528 1.78125
v 0.8125 0.90069444223013 1.469592690439602
v 1.1875 -0.46959269043960206 0.09930555776986999
v 1.1875 -0.78125 -0.03071112679052823
v 1.1875 -0.03071112679052801 -0.78125
v 0.8125 -0.46959269043960206 0.09930555776986999
v 0.8125 -0.78125 -0.03071112679052823
v 1.1875 1.78125 1.0307111267905282
v 1.1875 1.469592690439602 0.90069444223013
v 0.8125 1.78125 1.0307111267905282
v 0.8125 1.469592690439602 0.90069444223013
v 0.8125 1.4686171917173863 0.09833005904765446
v 1.1875 1.4686171917173863 0.09833005904765446
vt 0.6875 0.375
vt 0.6875 0.6875
vt 0.5625 0.6875
vt 0.5625 0.375
vt 0.6875 0.375
vt 0.6875 0.6875
vt 0.5625 0.6875
vt 0.5625 0.375
vt 0.6875 0.375
vt 0.6875 0.6875
vt 0.5625 0.6875
vt 0.5625 0.375
vt 0.6875 0.375
vt 0.6875 0.6875
vt 0.5625 0.6875
vt 0.5625 0.375
vt 0.6875 0.375
vt 0.6875 0.6875
vt 0.5625 0.6875
vt 0.5625 0.375
vt 0.6875 0.375
vt 0.6875 0.6875
vt 0.5625 0.6875
vt 0.5625 0.375
vt 0.6875 0.375
vt 0.6875 0.6875
vt 0.5625 0.6875
vt 0.5625 0.375
vt 0.6875 0.375
vt 0.6875 0.6875
vt 0.5625 0.6875
vt 0.5625 0.375
vt 0.6875 0.375
vt 0.6875 0.6875
vt 0.5625 0.6875
vt 0.5625 0.375
vt 0.6875 0.375
vt 0.6875 0.6875
vt 0.5625 0.6875
vt 0.5625 0.375
vt 0.6875 0.375
vt 0.6875 0.6875
vt 0.5625 0.6875
vt 0.5625 0.375
vt 0.6875 0.375
vt 0.6875 0.6875
vt 0.5625 0.6875
vt 0.5625 0.375
vt 0.6875 0.375
vt 0.6875 0.6875
vt 0.5625 0.6875
vt 0.5625 0.375
vt 0.6875 0.375
vt 0.6875 0.6875
vt 0.5625 0.6875
vt 0.5625 0.375
vt 0.6875 0.375
vt 0.6875 0.6875
vt 0.5625 0.6875
vt 0.5625 0.375
vt 0.6875 0.375
vt 0.6875 0.6875
vt 0.5625 0.6875
vt 0.5625 0.375
vt 0.6875 0.375
vt 0.6875 0.6875
vt 0.5625 0.6875
vt 0.5625 0.375
vt 0.6875 0.375
vt 0.6875 0.6875
vt 0.5625 0.6875
vt 0.5625 0.375
vt 0.6875 0.375
vt 0.6875 0.6875
vt 0.5625 0.6875
vt 0.5625 0.375
vt 0.6875 0.375
vt 0.6875 0.6875
vt 0.5625 0.6875
vt 0.5625 0.375
vt 0.6875 0.375
vt 0.6875 0.6875
vt 0.5625 0.6875
vt 0.5625 0.375
vt 0.6875 0.375
vt 0.6875 0.6875
vt 0.5625 0.6875
vt 0.5625 0.375
vt 0.6875 0.375
vt 0.6875 0.6875
vt 0.5625 0.6875
vt 0.5625 0.375
vt 0.6875 0.375
vt 0.6875 0.6875
vt 0.5625 0.6875
vt 0.5625 0.375
vt 0.6875 0.375
vt 0.6875 0.6875
vt 0.5625 0.6875
vt 0.5625 0.375
vt 0.6875 0.375
vt 0.6875 0.6875
vt 0.5625 0.6875
vt 0.5625 0.375
vt 0.6875 0.375
vt 0.6875 0.6875
vt 0.5625 0.6875
vt 0.5625 0.375
vt 0.6875 0.375
vt 0.6875 0.6875
vt 0.5625 0.6875
vt 0.5625 0.375
vt 0.6875 0.375
vt 0.6875 0.6875
vt 0.5625 0.6875
vt 0.5625 0.375
vt 0.6875 0.375
vt 0.6875 0.6875
vt 0.5625 0.6875
vt 0.5625 0.375
vt 0.6875 0.375
vt 0.6875 0.6875
vt 0.5625 0.6875
vt 0.5625 0.375
vt 0.6875 0.375
vt 0.6875 0.6875
vt 0.5625 0.6875
vt 0.5625 0.375
vt 0.5624868105666806 0.9981024411682606
vt 0 1
vt 0.06250493606560864 0.8437470683629461
vt 0.5000049360354228 0.8437528957908262
vt 0.0625 0.84375
vt 0.5 0.84375
vt 0.5625 1
vt 0 1
vt 0.4375 0.65625
vt 0 0.65625
vt 0 0.46875
vt 0.4375 0.46875
vt 0.5625 0.84375
vt 0 0.84375
vt 0 0.65625
vt 0.5625 0.65625
vt 0.5624868105666806 0.9981024411682606
vt 0 1
vt 0.06250493606560864 0.8437470683629461
vt 0.5000049360354228 0.8437528957908262
vt 0.0625 0.84375
vt 0.5 0.84375
vt 0.5625 1
vt 0 1
vt 0.4375 0.65625
vt 0 0.65625
vt 0 0.46875
vt 0.4375 0.46875
vt 0.5625 0.84375
vt 0 0.84375
vt 0 0.65625
vt 0.5625 0.65625
vt 0.0625 0.84375
vt 0.5 0.84375
vt 0.5625 1
vt 0 1
vt 0.5624868105666806 0.9981024411682606
vt 0 1
vt 0.06250493606560864 0.8437470683629461
vt 0.5000049360354228 0.8437528957908262
vt 0.5625 0.84375
vt 0 0.84375
vt 0 0.65625
vt 0.5625 0.65625
vt 0.5 0.84375
vt 0.0625 0.84375
vt 0.0625 0.65625
vt 0.5 0.65625
vt 0.0625 0.84375
vt 0.5 0.84375
vt 0.5625 1
vt 0 1
vt 0.5624868105666806 0.9981024411682606
vt 0 1
vt 0.06250493606560864 0.8437470683629461
vt 0.5000049360354228 0.8437528957908262
vt 0.5625 0.84375
vt 0 0.84375
vt 0 0.65625
vt 0.5625 0.65625
vt 0.4375 0.65625
vt 0 0.65625
vt 0 0.46875
vt 0.4375 0.46875
vt 0.5625 1
vt 0.5 0.84375
vt 0.0625 0.84375
vt 0 1
vt 0.5625 1
vt 0.5 0.84375
vt 0.0625 0.84375
vt 0 1
vt 0.4375 0.65625
vt 0 0.65625
vt 0 0.46875
vt 0.4375 0.46875
vt 0.5625 0.84375
vt 0 0.84375
vt 0 0.65625
vt 0.5625 0.65625
vt 0.5625 1
vt 0.5 0.84375
vt 0.0625 0.84375
vt 0 1
vt 0.5625 1
vt 0.5 0.84375
vt 0.0625 0.84375
vt 0 1
vt 0.4375 0.65625
vt 0 0.65625
vt 0 0.46875
vt 0.4375 0.46875
vt 0.5625 0.84375
vt 0 0.84375
vt 0 0.65625
vt 0.5625 0.65625
vt 0.5 0.84375
vt 0.5625 1
vt 0 1
vt 0.0625 0.84375
vt 0.5 0.84375
vt 0.5625 1
vt 0 1
vt 0.0625 0.84375
vt 0.5625 0.84375
vt 0 0.84375
vt 0 0.65625
vt 0.5625 0.65625
vt 0.4375 0.65625
vt 0 0.65625
vt 0 0.46875
vt 0.4375 0.46875
vt 0.5 0.84375
vt 0.5625 1
vt 0 1
vt 0.0625 0.84375
vt 0.5 0.84375
vt 0.5625 1
vt 0 1
vt 0.0625 0.84375
vt 0.5625 0.84375
vt 0 0.84375
vt 0 0.65625
vt 0.5625 0.65625
vt 0.4375 0.65625
vt 0 0.65625
vt 0 0.46875
vt 0.4375 0.46875
vn 1 0 0
vn -1 0 0
vn 0 0 1
vn 0 0 -1
vn 1 0 0
vn -1 0 0
vn 0 8.881784197001253e-17 -1
vn 0 -1.7763568394002506e-16 1
vn 1 0 0
vn -1 0 0
vn 0 1 1.7763568394002506e-16
vn 0 -1 -1.7763568394002506e-16
vn 1 0 0
vn -1 0 0
vn 0 -1 1.7763568394002506e-16
vn 0 1 -1.7763568394002506e-16
vn 1 0 0
vn -1 0 0
vn 0 0.7071067811865476 0.7071067811865475
vn 0 -0.7071067811865476 -0.7071067811865476
vn 1 0 0
vn -1 0 0
vn 0 -0.7071067811865476 -0.7071067811865475
vn 0 0.7071067811865477 0.7071067811865474
vn 1 0 0
vn -1 0 0
vn 0 -0.7071067811865476 0.7071067811865476
vn 0 0.7071067811865476 -0.7071067811865475
vn 1 0 0
vn -1 0 0
vn 0 0.7071067811865477 -0.7071067811865474
vn 0 -0.7071067811865476 0.7071067811865475
vn 1 0 0
vn -1 0 0
vn 0 -0.7071067811865477 0.7071067811865475
vn 0 0.7071067811865477 -0.7071067811865475
vn 1 0 0
vn -1 0 0
vn 0 0 1
vn 0 0 -1
vn 1 0 0
vn -1 0 0
vn 0 -0.7071067811865476 0.7071067811865475
vn 1.8399218297535896e-16 0.7071067811865476 -0.7071067811865476
vn 1 0 0
vn -1 0 0
vn 0 0 1
vn 0 0 -1
vn 1 0 0
vn -1 0 0
vn 0 0.7071067811865476 0.7071067811865476
vn 0 -0.7071067811865475 -0.7071067811865476
vn 1 0 0
vn -1 0 0
vn 0 1 -1.3853736259056028e-16
vn 0 -1 0
vn 1 0 0
vn -1 0 0
vn 0 0.7071067811865475 0.7071067811865476
vn 0 -0.7071067811865476 -0.7071067811865476
vn 1 0 0
vn -1 0 0
vn 0 1 0
vn 0 -0.9999992609400842 0.001215779291441756
usemtl m_f568ed90-127e-e165-b0ac-eb26cbc4f681
f 4/1/1 2/2/1 1/3/1 3/4/1
f 7/5/2 5/6/2 6/7/2 8/8/2
f 3/9/3 1/10/3 5/11/3 7/12/3
f 8/13/4 6/14/4 2/15/4 4/16/4
f 12/17/5 10/18/5 9/19/5 11/20/5
f 15/21/6 13/22/6 14/23/6 16/24/6
f 11/25/7 9/26/7 13/27/7 15/28/7
f 16/29/8 14/30/8 10/31/8 12/32/8
f 20/33/9 18/34/9 17/35/9 19/36/9
f 23/37/10 21/38/10 22/39/10 24/40/10
f 19/41/11 17/42/11 21/43/11 23/44/11
f 24/45/12 22/46/12 18/47/12 20/48/12
f 28/49/13 26/50/13 25/51/13 27/52/13
f 31/53/14 29/54/14 30/55/14 32/56/14
f 27/57/15 25/58/15 29/59/15 31/60/15
f 32/61/16 30/62/16 26/63/16 28/64/16
f 36/65/17 34/66/17 33/67/17 35/68/17
f 39/69/18 37/70/18 38/71/18 40/72/18
f 35/73/19 33/74/19 37/75/19 39/76/19
f 40/77/20 38/78/20 34/79/20 36/80/20
f 44/81/21 42/82/21 41/83/21 43/84/21
f 47/85/22 45/86/22 46/87/22 48/88/22
f 43/89/23 41/90/23 45/91/23 47/92/23
f 48/93/24 46/94/24 42/95/24 44/96/24
f 52/97/25 50/98/25 49/99/25 51/100/25
f 55/101/26 53/102/26 54/103/26 56/104/26
f 51/105/27 49/106/27 53/107/27 55/108/27
f 56/109/28 54/110/28 50/111/28 52/112/28
f 60/113/29 58/114/29 57/115/29 59/116/29
f 63/117/30 61/118/30 62/119/30 64/120/30
f 59/121/31 57/122/31 61/123/31 63/124/31
f 64/125/32 62/126/32 58/127/32 60/128/32
f 67/129/33 65/130/33 97/131/33 66/132/33
f 69/133/34 96/134/34 68/135/34 70/136/34
f 66/137/35 97/138/35 96/139/35 69/140/35
f 70/141/36 68/142/36 65/143/36 67/144/36
f 72/145/37 67/146/37 66/147/37 71/148/37
f 73/149/38 69/150/38 70/151/38 74/152/38
f 71/153/39 66/154/39 69/155/39 73/156/39
f 74/157/40 70/158/40 67/159/40 72/160/40
f 78/161/41 76/162/41 75/163/41 77/164/41
f 81/165/42 79/166/42 80/167/42 82/168/42
f 77/169/43 75/170/43 79/171/43 81/172/43
f 82/173/44 80/174/44 76/175/44 78/176/44
f 76/177/45 84/178/45 83/179/45 75/180/45
f 79/181/46 85/182/46 86/183/46 80/184/46
f 75/185/47 83/186/47 85/187/47 79/188/47
f 80/189/48 86/190/48 84/191/48 76/192/48
f 89/193/49 71/194/49 87/195/49 88/196/49
f 91/197/50 90/198/50 73/199/50 74/200/50
f 87/201/51 71/202/51 73/203/51 90/204/51
f 89/205/52 88/206/52 91/207/52 74/208/52
f 88/209/53 87/210/53 78/211/53 77/212/53
f 81/213/54 82/214/54 90/215/54 91/216/54
f 78/217/55 87/218/55 90/219/55 82/220/55
f 88/221/56 77/222/56 81/223/56 91/224/56
f 93/225/57 92/226/57 83/227/57 84/228/57
f 86/229/58 85/230/58 94/231/58 95/232/58
f 83/233/59 92/234/59 94/235/59 85/236/59
f 93/237/60 84/238/60 86/239/60 95/240/60
f 97/241/61 65/242/61 92/243/61 93/244/61
f 95/245/62 94/246/62 68/247/62 96/248/62
f 92/249/63 65/250/63 68/251/63 94/252/63
f 97/253/64 93/254/64 95/255/64 96/256/64