# Made in Blockbench 4.7.2
mtllib core_glow.mtl

o blade_outer
v 0.8096519159307305 1.0447861839435033 0.53125625
v 0.8096519159307305 1.0447861839435033 0.46875625
v 0.8484156112540553 0.959368363496711 0.53125625
v 0.8513027347931531 0.9605642492228519 0.46875625
v 0.7340092792063688 1.0134539779186116 0.53125625
v 0.7340092792063688 1.0134539779186116 0.46875625
v 0.7335080943979639 0.9117721115963029 0.53125625
v 0.7335080943979639 0.9117721115963029 0.46875625
v 0.7343749999999999 1.028125 0.53125
v 0.7343749999999999 1.028125 0.46875
v 0.7343749999999999 0.621875 0.53125
v 0.7343749999999999 0.621875 0.46875
v 0.640625 1.028125 0.53125
v 0.640625 1.028125 0.46875
v 0.640625 0.621875 0.53125
v 0.640625 0.621875 0.46875
v 0.9531488924358055 0.9425553465233504 0.468753125
v 0.9521788100471146 0.6687414642277788 0.531253125
v 0.9521788100471146 0.6687414642277788 0.468753125
v 0.8629670393493388 0.9246170606312367 0.531253125
v 0.8629670393493388 0.9246170606312367 0.468753125
v 0.861996956960648 0.6866797501198925 0.468753125
v 0.8455430695189294 1.1949518115655002 0.53125
v 0.8455430695189294 1.1949518115655002 0.46875
v 0.7589293633459964 1.159075239781273 0.53125
v 0.7589293633459964 1.159075239781273 0.46875
v 0.8436029047415476 0.40889180993675844 0.53125
v 0.8436029047415476 0.40889180993675844 0.46875
v 0.861996956960648 0.6866797501198925 0.531253125
v 0.7569891985686146 0.4447683817209856 0.53125
v 0.7569891985686146 0.4447683817209856 0.46875
v 0.9531488924358055 0.9425553465233504 0.531253125
v 0.59375 0.90625 0.53125
v 0.59375 0.90625 0.46875
v 0.59375 0.78125 0.53125
v 0.59375 0.78125 0.46875
v 0.359375 0.90625 0.53125
v 0.359375 0.90625 0.46875
v 0.359375 0.7812499999999999 0.53125
v 0.359375 0.7812499999999999 0.46875
vt 0.625 0.15625
vt 0.625 0.5625
vt 0.5625 0.5625
vt 0.5625 0.15625
vt 0.125 0.21875
vt 0.125 0.625
vt 0.0625 0.625
vt 0.0625 0.21875
vt 0.59375 0.15625
vt 0.59375 0.5625
vt 0.5 0.5625
vt 0.5 0.15625
vt 0.53125 0.21875
vt 0.53125 0.625
vt 0.4375 0.625
vt 0.4375 0.21875
vt 0.625 0.15625
vt 0.625 0.5625
vt 0.5625 0.5625
vt 0.5625 0.15625
vt 0.125 0.21875
vt 0.125 0.625
vt 0.0625 0.625
vt 0.0625 0.21875
vt 0.53125 0.4375
vt 0.53125 0.5
vt 0.4375 0.5
vt 0.4375 0.4375
vt 0.53125 0.4375
vt 0.53125 0.5
vt 0.4375 0.5
vt 0.4375 0.4375
vt 0.59375 0.15625
vt 0.59375 0.5625
vt 0.5 0.5625
vt 0.5 0.15625
vt 0.53125 0.21875
vt 0.53125 0.625
vt 0.4375 0.625
vt 0.4375 0.21875
vt 0.625 0.15625
vt 0.625 0.5625
vt 0.5625 0.5625
vt 0.5625 0.15625
vt 0.125 0.21875
vt 0.125 0.625
vt 0.0625 0.625
vt 0.0625 0.21875
vt 0.59375 0.15625
vt 0.59375 0.5625
vt 0.5 0.5625
vt 0.5 0.15625
vt 0.53125 0.21875
vt 0.53125 0.625
vt 0.4375 0.625
vt 0.4375 0.21875
vt 0.625 0.15625
vt 0.625 0.5625
vt 0.5625 0.5625
vt 0.5625 0.15625
vt 0.125 0.21875
vt 0.125 0.625
vt 0.0625 0.625
vt 0.0625 0.21875
vt 0.53125 0.4375
vt 0.53125 0.5
vt 0.4375 0.5
vt 0.4375 0.4375
vt 0.59375 0.15625
vt 0.59375 0.5625
vt 0.5 0.5625
vt 0.5 0.15625
vt 0.53125 0.21875
vt 0.53125 0.625
vt 0.4375 0.625
vt 0.4375 0.21875
vt 0.625 0.15625
vt 0.625 0.5625
vt 0.5625 0.5625
vt 0.5625 0.15625
vt 0.125 0.21875
vt 0.125 0.625
vt 0.0625 0.625
vt 0.0625 0.21875
vt 0.53125 0.4375
vt 0.53125 0.5
vt 0.4375 0.5
vt 0.4375 0.4375
vt 0.59375 0.15625
vt 0.59375 0.5625
vt 0.5 0.5625
vt 0.5 0.15625
vt 0.53125 0.21875
vt 0.53125 0.625
vt 0.4375 0.625
vt 0.4375 0.21875
vt 0.5 0.75
vt 0.5 0.875
vt 0.4375 0.875
vt 0.4375 0.75
vt 0.671875 0.75
vt 0.671875 0.875
vt 0.4375 0.875
vt 0.4375 0.75
vt 0.671875 0.75
vt 0.671875 0.875
vt 0.4375 0.875
vt 0.4375 0.75
vn -0.3826834323650897 0.9238795325112867 0
vn 0.3826834323650897 -0.9238795325112867 0
vn 0 0 1
vn 0 0 -1
vn 1 -5.551115123125783e-17 0
vn -1 0 0
vn 7.216449660063518e-16 1 0
vn -1.1102230246251565e-16 -1 0
vn 0 0 1
vn 0 0 -1
vn 0.9999937241546867 -0.0035428309641244438 0
vn -0.9999916889339434 0.004077016438435721 0
vn 0 0 1
vn 0 0 -1
vn 0.9198877639872957 0.39218172020946307 0
vn -0.9140515138687482 -0.40559811389385175 0
vn -0.382683432365092 0.9238795325112861 0
vn -0.00000435877355554217 0.000010523010233103031 0.9999999999351337
vn 0.0000046636933009947425 -0.000011259151618009988 -0.9999999999257408
vn 0.9226916866127944 -0.3855386510528317 0
vn -0.9173071291560013 0.39818039981844283 0
vn -0.3826834323650898 -0.9238795325112867 0
vn -0.000002208592424049817 -0.00001110334391543557 0.9999999999359189
vn 0.0000023653127806767546 0.00001189123035352621 -0.9999999999265021
vn -1 -5.551115123125783e-16 0
vn 0 0 1
vn 0 0 -1
usemtl m_1d0737f6-dcb5-10e3-2a7a-246efe820df9
f 1/1/1 2/2/1 6/3/1 5/4/1
f 4/5/2 3/6/2 7/7/2 8/8/2
f 3/9/3 1/10/3 5/11/3 7/12/3
f 8/13/4 6/14/4 2/15/4 4/16/4
f 12/17/5 10/18/5 9/19/5 11/20/5
f 15/21/6 13/22/6 14/23/6 16/24/6
f 9/25/7 10/26/7 14/27/7 13/28/7
f 12/29/8 11/30/8 15/31/8 16/32/8
f 11/33/9 9/34/9 13/35/9 15/36/9
f 16/37/10 14/38/10 10/39/10 12/40/10
f 19/41/11 17/42/11 32/43/11 18/44/11
f 29/45/12 20/46/12 21/47/12 22/48/12
f 18/49/13 32/50/13 20/51/13 29/52/13
f 22/53/14 21/54/14 17/55/14 19/56/14
f 17/57/15 24/58/15 23/59/15 32/60/15
f 20/61/16 25/62/16 26/63/16 21/64/16
f 23/65/17 24/66/17 26/67/17 25/68/17
f 32/69/18 23/70/18 25/71/18 20/72/18
f 21/73/19 26/74/19 24/75/19 17/76/19
f 28/77/20 19/78/20 18/79/20 27/80/20
f 30/81/21 29/82/21 22/83/21 31/84/21
f 28/85/22 27/86/22 30/87/22 31/88/22
f 27/89/23 18/90/23 29/91/23 30/92/23
f 31/93/24 22/94/24 19/95/24 28/96/24
f 39/97/25 37/98/25 38/99/25 40/100/25
f 35/101/26 33/102/26 37/103/26 39/104/26
f 40/105/27 38/106/27 34/107/27 36/108/27